<?xml version="1.0" ?><svg viewBox="0 0 64 64" xmlns="http://www.w3.org/2000/svg"><path d="M16.636 13.793c-.338.288-1.595 1.777-2.175 3.794-.58 2.017-.144 4.802-.096 5.475.048.672 1.644.384 1.885.144.24-.24-.05-.336-.194-3.554-.145-3.218 1.354-4.898 1.354-5.09s-.478-1.02-.774-.77zm16.437 39.524c-3.53-.096-7.348 1.585-7.3 5.38.048 3.793 3.384 5.138 5.898 5.282 2.515.143 9.09-.337 8.993-4.18-.097-3.842-3.38-6.37-7.59-6.483zm-.918 8.596c-2.224 0-3.867-1.825-3.916-3.266-.05-1.44 1.304-3.554 5.027-3.65 1.69-.044 4.738 1.153 4.93 3.89.194 2.738-3.82 3.026-6.042 3.026zM32.348.01c-11.99-.336-20.063 7.54-21.85 14.648-1.79 7.108 1.8 16.653 2.174 16.76 5.705 1.633 13.778-1.97 14.02-2.4.242-.433.822-.865-1.257-4.803s.58-10.18 6.526-9.317c5.947.864 6.77 5.715 5.947 9.46-.822 3.747-3.77 7.11-6.865 11.43-3.094 4.323-2.95 10.95-2.562 12.055.387 1.104 9.04 1.345 11.022 1.01 1.982-.337 1.21 1.392 3.674-7.445 2.466-8.836 9.475-11.142 9.814-23.388C53.33 5.773 44.337.347 32.348.01zm18.13 19.786c-.29-.288-2.515-4.994-2.998-4.994-.483 0-1.015.624-.87.768s3.53 5.235 3.577 5.715c.048.48-.532 2.593-.58 2.45-.048-.145-3.142-6.052-3.432-6.052-.29 0-.967.672-.725 1.008.242.337 3.77 6.34 3.77 6.34s-.918 2.257-1.063 2.16c-.145-.095-3.287-6.242-3.48-6.242s-.63.864-.533 1.105c.097.24 3.53 5.907 3.53 6.29 0 .385-1.5 2.162-1.5 2.162s-2.66-6.003-2.9-6.003c-.243 0-.774 1.153-.774 1.153s2.997 5.907 2.997 6.05c0 .145-1.112 1.874-1.112 1.874s-2.223-5.38-2.368-5.38c-.145 0-.822.912-.725 1.104.097.192 2.37 4.995 2.37 5.235 0 .24-.92 2.88-1.065 2.736-.145-.144-2.466-5.86-2.66-5.907-.192-.05-.966 1.008-.724 1.344.242.336 2.804 5.715 2.804 5.955 0 .24-.677 2.256-.822 2.208s-2.95-6.29-2.95-6.29-.87.96-.772 1.248 3.046 6.34 3.046 6.34l-.968 2.4s-2.95-6.963-3.094-6.963c-.145 0-.725 1.2-.628 1.49s3.48 6.818 3.384 7.155c-.097.336-1.16.48-1.402.288s-3.24-6.1-3.24-6.1-.724.96-.482 1.25c.242.288 2.756 4.898 2.514 4.898s-1.837.288-1.837 0-1.112-2.88-1.354-2.93-.967.29-.92.577c.05.29 1.45 2.306 1.113 2.306-.338 0-2.514-.24-2.61-.384-.098-.144.047-5.38 1.788-8.548 1.74-3.17 7.25-9.413 7.638-13.783.387-4.37-.967-7.827-5.463-10.516-4.497-2.69-10.733-.24-12.28 5.09s1.885 9.174 1.885 9.558c0 .384-6.72 2.4-10.056 1.25 0 0-2.612-6.148-2.03-11.91.58-5.764 6.14-11.383 10.2-13.304s13.44-2.69 18.515-.672 7.542 6.723 8.218 8.836c0 0-1.257-.816-1.402-.768s-.434.912-.144 1.104c.29.192 2.37 2.785 2.514 3.266.145.48.387 4.32.097 4.032zM31.283 56.342c-1.644.432-1.837 2.497-1.644 3.266.193.768 1.354.624 1.595.48.242-.144 0-.24-.145-1.153-.145-.912.967-1.97 1.16-2.113.195-.143-.443-.617-.966-.48z"/></svg>